<svg width="15" height="15" viewBox="0 0 15 15" fill="none" xmlns="http://www.w3.org/2000/svg">
<path d="M8.32843 7.50077L14.8281 1.00102C15.057 0.772185 15.057 0.401169 14.8281 0.172361C14.5993 -0.0564477 14.2283 -0.056477 13.9995 0.172361L7.49974 6.6721L1.00004 0.172361C0.771206 -0.056477 0.400192 -0.056477 0.171384 0.172361C-0.0574242 0.401199 -0.0574534 0.772214 0.171384 1.00102L6.67108 7.50074L0.171384 14.0005C-0.0574534 14.2293 -0.0574534 14.6003 0.171384 14.8291C0.285788 14.9435 0.435758 15.0007 0.585728 15.0007C0.735698 15.0007 0.88564 14.9435 1.00007 14.8291L7.49974 8.32943L13.9994 14.8291C14.1138 14.9435 14.2638 15.0007 14.4138 15.0007C14.5638 15.0007 14.7137 14.9435 14.8281 14.8291C15.057 14.6003 15.057 14.2293 14.8281 14.0005L8.32843 7.50077Z" fill="#0B1F35"/>
</svg>
