<svg width="18" height="19" viewBox="0 0 18 19" fill="none" xmlns="http://www.w3.org/2000/svg">
<path d="M9 2.21885C11.4 2.21885 11.7 2.21885 12.675 2.29385C15.15 2.36885 16.275 3.56885 16.35 5.96885C16.425 6.94385 16.425 7.16885 16.425 9.56885C16.425 11.9688 16.425 12.2688 16.35 13.1688C16.275 15.5688 15.075 16.7688 12.675 16.8438C11.7 16.9188 11.475 16.9188 9 16.9188C6.6 16.9188 6.3 16.9188 5.4 16.8438C2.925 16.7688 1.8 15.5688 1.725 13.1688C1.65 12.1938 1.65 11.9688 1.65 9.56885C1.65 7.16885 1.65 6.86885 1.725 5.96885C1.8 3.56885 3 2.36885 5.4 2.29385C6.3 2.21885 6.6 2.21885 9 2.21885ZM9 0.568848C6.525 0.568848 6.225 0.568848 5.325 0.643848C2.025 0.793848 0.225 2.59385 0.075 5.89385C0 6.79385 0 7.09385 0 9.56885C0 12.0438 0 12.3438 0.075 13.2438C0.225 16.5438 2.025 18.3438 5.325 18.4938C6.225 18.5688 6.525 18.5688 9 18.5688C11.475 18.5688 11.775 18.5688 12.675 18.4938C15.975 18.3438 17.775 16.5438 17.925 13.2438C18 12.3438 18 12.0438 18 9.56885C18 7.09385 18 6.79385 17.925 5.89385C17.775 2.59385 15.975 0.793848 12.675 0.643848C11.775 0.568848 11.475 0.568848 9 0.568848ZM9 4.91885C6.45 4.91885 4.35 7.01885 4.35 9.56885C4.35 12.1188 6.45 14.2188 9 14.2188C11.55 14.2188 13.65 12.1188 13.65 9.56885C13.65 7.01885 11.55 4.91885 9 4.91885ZM9 12.5688C7.35 12.5688 6 11.2188 6 9.56885C6 7.91885 7.35 6.56885 9 6.56885C10.65 6.56885 12 7.91885 12 9.56885C12 11.2188 10.65 12.5688 9 12.5688ZM13.8 3.71885C13.2 3.71885 12.75 4.16885 12.75 4.76885C12.75 5.36885 13.2 5.81885 13.8 5.81885C14.4 5.81885 14.85 5.36885 14.85 4.76885C14.85 4.16885 14.4 3.71885 13.8 3.71885Z" fill="#15499F"/>
</svg>
