<svg width="122" height="54" viewBox="0 0 122 54" fill="none" xmlns="http://www.w3.org/2000/svg">
<path d="M0 15.4853C0 6.933 6.933 0 15.4853 0H105.618C114.17 0 121.103 6.933 121.103 15.4853V38.5147C121.103 47.067 114.17 54 105.618 54H15.4853C6.933 54 0 47.067 0 38.5147V15.4853Z" fill="#15499F"/>
<path d="M0 20.25H67.6752V54H0V20.25Z" fill="#15499F"/>
<path d="M40.9613 0H121.103V33.75H40.9613V0Z" fill="#15499F"/>
<path d="M18.5266 29.0448C18.2293 29.0448 17.9789 28.9431 17.7755 28.7396C17.5721 28.5362 17.4703 28.2858 17.4703 27.9885V13.506C17.4703 13.2086 17.5721 12.9583 17.7755 12.7548C17.9789 12.5358 18.2293 12.4262 18.5266 12.4262C18.8239 12.4262 19.0743 12.5358 19.2777 12.7548C19.4968 12.9583 19.6063 13.2086 19.6063 13.506V27.9885C19.6063 28.2858 19.4968 28.5362 19.2777 28.7396C19.0743 28.9431 18.8239 29.0448 18.5266 29.0448Z" fill="white"/>
<path d="M25.22 29.0448C24.9226 29.0448 24.6723 28.9431 24.4688 28.7396C24.2654 28.5362 24.1637 28.2858 24.1637 27.9885V13.9754C24.1637 13.5529 24.3123 13.193 24.6097 12.8957C24.907 12.5827 25.2669 12.4262 25.6894 12.4262H25.9945C26.4953 12.4262 26.9256 12.6609 27.2855 13.1304L36.3225 26.1811V13.506C36.3225 13.2086 36.4242 12.9583 36.6276 12.7548C36.831 12.5358 37.0814 12.4262 37.3787 12.4262C37.6761 12.4262 37.9264 12.5358 38.1299 12.7548C38.3489 12.9583 38.4585 13.2086 38.4585 13.506V27.5191C38.4585 27.9416 38.302 28.3015 37.989 28.5988C37.6917 28.8961 37.3318 29.0448 36.9093 29.0448H36.6276C36.3772 29.0448 36.1425 28.99 35.9234 28.8805C35.7044 28.7553 35.5244 28.5988 35.3836 28.411L26.2997 15.2899V27.9885C26.2997 28.2858 26.1902 28.5362 25.9711 28.7396C25.7676 28.9431 25.5173 29.0448 25.22 29.0448Z" fill="white"/>
<path d="M48.1699 29.1621C46.1825 29.1621 44.3204 28.7866 42.5834 28.0355C42.3956 27.9572 42.2391 27.832 42.114 27.6599C41.9888 27.4721 41.9262 27.2765 41.9262 27.0731C41.9262 26.8071 42.0122 26.5802 42.1844 26.3924C42.3722 26.189 42.6069 26.0872 42.8885 26.0872C43.045 26.0872 43.1937 26.1185 43.3345 26.1811C44.7742 26.8227 46.3155 27.1435 47.9586 27.1435C50.6971 27.1435 52.0663 26.2437 52.0663 24.4442C52.0663 23.9747 51.8864 23.5835 51.5264 23.2705C51.1822 22.9576 50.7519 22.715 50.2355 22.5429C49.7191 22.3551 48.9836 22.136 48.029 21.8857C46.7615 21.557 45.7365 21.2441 44.9541 20.9468C44.1717 20.6338 43.4988 20.1722 42.9355 19.5619C42.3722 18.9516 42.0905 18.1379 42.0905 17.1207C42.0905 16.2288 42.3252 15.4229 42.7947 14.7031C43.2641 13.9676 43.9526 13.3886 44.8602 12.9661C45.7835 12.5279 46.8867 12.3089 48.1699 12.3089C49.8912 12.3089 51.4482 12.5671 52.8409 13.0834C53.2791 13.2399 53.4981 13.5529 53.4981 14.0223C53.4981 14.2727 53.4121 14.4996 53.2399 14.7031C53.0678 14.9065 52.8409 15.0082 52.5592 15.0082C52.4653 15.0082 52.3402 14.9769 52.1837 14.9143C50.9631 14.4918 49.7034 14.2805 48.4046 14.2805C47.1684 14.2805 46.1591 14.5153 45.3766 14.9847C44.6099 15.4542 44.2265 16.1114 44.2265 16.9564C44.2265 17.5198 44.4064 17.9814 44.7663 18.3413C45.1419 18.6856 45.6035 18.9594 46.1512 19.1628C46.7146 19.3506 47.4735 19.554 48.4281 19.7731C49.6643 20.0704 50.658 20.3678 51.4091 20.6651C52.1758 20.9624 52.8253 21.424 53.3573 22.05C53.905 22.6759 54.1788 23.5209 54.1788 24.585C54.1788 25.4613 53.9285 26.2515 53.4277 26.9557C52.927 27.6443 52.2228 28.1841 51.3152 28.5753C50.4076 28.9665 49.3591 29.1621 48.1699 29.1621Z" fill="white"/>
<path d="M64.0892 29.1621C62.9782 29.1621 61.9063 28.9274 60.8735 28.458C59.8407 27.9885 58.9957 27.2765 58.3384 26.322C57.6812 25.3518 57.3526 24.1703 57.3526 22.7776V13.506C57.3526 13.2086 57.4543 12.9583 57.6577 12.7548C57.8612 12.5358 58.1115 12.4262 58.4088 12.4262C58.7062 12.4262 58.9565 12.5358 59.16 12.7548C59.379 12.9583 59.4886 13.2086 59.4886 13.506V22.848C59.4886 23.7869 59.6998 24.585 60.1223 25.2422C60.5605 25.8995 61.1317 26.3924 61.8358 26.721C62.54 27.0496 63.2911 27.2139 64.0892 27.2139C64.8873 27.2139 65.6384 27.0496 66.3426 26.721C67.0467 26.3924 67.6101 25.8995 68.0326 25.2422C68.4707 24.585 68.6898 23.7869 68.6898 22.848V13.506C68.6898 13.2086 68.7915 12.9583 68.995 12.7548C69.1984 12.5358 69.4488 12.4262 69.7461 12.4262C70.0434 12.4262 70.2938 12.5358 70.4972 12.7548C70.7163 12.9583 70.8258 13.2086 70.8258 13.506V22.7776C70.8258 24.1703 70.4972 25.3518 69.84 26.322C69.1827 27.2765 68.3377 27.9885 67.3049 28.458C66.2722 28.9274 65.2002 29.1621 64.0892 29.1621Z" fill="white"/>
<path d="M76.314 29.0448C76.0167 29.0448 75.7663 28.9431 75.5629 28.7396C75.3595 28.5362 75.2577 28.2858 75.2577 27.9885V13.6233C75.2577 13.326 75.3595 13.0756 75.5629 12.8722C75.7663 12.6531 76.0167 12.5436 76.314 12.5436H81.7831C83.9113 12.5436 85.5074 12.9817 86.5715 13.858C87.6356 14.7343 88.1676 15.8845 88.1676 17.3085C88.1676 18.2474 87.9016 19.1081 87.3696 19.8905C86.8532 20.6573 86.0942 21.2128 85.0927 21.557C86.2194 21.8544 86.9862 22.5585 87.393 23.6696C87.8156 24.765 88.0268 25.8447 88.0268 26.9088V27.9885C88.0268 28.2858 87.9251 28.5362 87.7217 28.7396C87.5182 28.9431 87.2679 29.0448 86.9705 29.0448C86.6419 29.0448 86.3759 28.9509 86.1725 28.7631C85.9847 28.5597 85.8908 28.3015 85.8908 27.9885V27.2843C85.8908 26.5019 85.8204 25.7821 85.6796 25.1249C85.5387 24.452 85.2023 23.8573 84.6702 23.341C84.1382 22.8089 83.3323 22.5429 82.2526 22.5429H77.3937V27.9885C77.3937 28.2858 77.2842 28.5362 77.0651 28.7396C76.8617 28.9431 76.6113 29.0448 76.314 29.0448ZM81.6423 20.5242C82.988 20.5242 84.0521 20.2582 84.8345 19.7262C85.6326 19.1941 86.0316 18.443 86.0316 17.4728C86.0316 16.5339 85.6874 15.8141 84.9988 15.3133C84.326 14.8126 83.168 14.5622 81.5249 14.5622H77.3937V20.5242H81.6423Z" fill="white"/>
<path d="M97.1321 29.1621C95.1448 29.1621 93.2826 28.7866 91.5457 28.0355C91.3579 27.9572 91.2014 27.832 91.0762 27.6599C90.951 27.4721 90.8884 27.2765 90.8884 27.0731C90.8884 26.8071 90.9745 26.5802 91.1466 26.3924C91.3344 26.189 91.5691 26.0872 91.8508 26.0872C92.0073 26.0872 92.156 26.1185 92.2968 26.1811C93.7364 26.8227 95.2778 27.1435 96.9209 27.1435C99.6593 27.1435 101.029 26.2437 101.029 24.4442C101.029 23.9747 100.849 23.5835 100.489 23.2705C100.144 22.9576 99.7141 22.715 99.1977 22.5429C98.6813 22.3551 97.9458 22.136 96.9913 21.8857C95.7238 21.557 94.6988 21.2441 93.9164 20.9468C93.134 20.6338 92.4611 20.1722 91.8978 19.5619C91.3344 18.9516 91.0527 18.1379 91.0527 17.1207C91.0527 16.2288 91.2875 15.4229 91.7569 14.7031C92.2264 13.9676 92.9149 13.3886 93.8225 12.9661C94.7458 12.5279 95.849 12.3089 97.1321 12.3089C98.8534 12.3089 100.41 12.5671 101.803 13.0834C102.241 13.2399 102.46 13.5529 102.46 14.0223C102.46 14.2727 102.374 14.4996 102.202 14.7031C102.03 14.9065 101.803 15.0082 101.521 15.0082C101.428 15.0082 101.302 14.9769 101.146 14.9143C99.9254 14.4918 98.6657 14.2805 97.3669 14.2805C96.1306 14.2805 95.1213 14.5153 94.3389 14.9847C93.5721 15.4542 93.1887 16.1114 93.1887 16.9564C93.1887 17.5198 93.3687 17.9814 93.7286 18.3413C94.1042 18.6856 94.5658 18.9594 95.1135 19.1628C95.6768 19.3506 96.4358 19.554 97.3903 19.7731C98.6265 20.0704 99.6202 20.3678 100.371 20.6651C101.138 20.9624 101.788 21.424 102.32 22.05C102.867 22.6759 103.141 23.5209 103.141 24.585C103.141 25.4613 102.891 26.2515 102.39 26.9557C101.889 27.6443 101.185 28.1841 100.277 28.5753C99.3699 28.9665 98.3214 29.1621 97.1321 29.1621Z" fill="white"/>
<path d="M61.6286 41.3531C60.8107 41.3531 60.094 41.1739 59.4787 40.8156C58.8633 40.4573 58.3881 39.9626 58.0531 39.3317C57.7182 38.7007 57.5429 37.9762 57.5273 37.1583C57.5429 36.3404 57.7182 35.616 58.0531 34.985C58.3881 34.354 58.8633 33.8594 59.4787 33.5011C60.094 33.1427 60.8107 32.9636 61.6286 32.9636C62.4465 32.9636 63.1593 33.1427 63.7669 33.5011C64.3823 33.8594 64.8575 34.3579 65.1924 34.9967C65.5352 35.6276 65.7143 36.3482 65.7299 37.1583C65.7143 37.9685 65.5352 38.6929 65.1924 39.3317C64.8575 39.9626 64.3823 40.4573 63.7669 40.8156C63.1593 41.1739 62.4465 41.3531 61.6286 41.3531ZM61.6286 40.3599C62.2518 40.3599 62.7932 40.2197 63.2528 39.9393C63.7124 39.6588 64.0629 39.2771 64.3044 38.7942C64.5459 38.3112 64.6666 37.7659 64.6666 37.1583C64.6666 36.5507 64.5459 36.0054 64.3044 35.5225C64.0629 35.0395 63.7124 34.6578 63.2528 34.3774C62.7932 34.097 62.2518 33.9568 61.6286 33.9568C60.9976 33.9568 60.4524 34.097 59.9928 34.3774C59.541 34.6578 59.1943 35.0395 58.9529 35.5225C58.7114 36.0054 58.5906 36.5507 58.5906 37.1583C58.5906 37.7659 58.7114 38.3112 58.9529 38.7942C59.1943 39.2771 59.541 39.6588 59.9928 39.9393C60.4524 40.2197 60.9976 40.3599 61.6286 40.3599Z" fill="white"/>
<path d="M68.0262 41.2947C67.8782 41.2947 67.7536 41.244 67.6523 41.1428C67.551 41.0415 67.5004 40.9169 67.5004 40.7689V33.7932C67.5004 33.5828 67.5744 33.4037 67.7224 33.2557C67.8704 33.0999 68.0496 33.022 68.2599 33.022H68.4118C68.6611 33.022 68.8753 33.1388 69.0544 33.3725L73.553 39.8691V33.5595C73.553 33.4115 73.6036 33.2868 73.7049 33.1856C73.8062 33.0765 73.9308 33.022 74.0788 33.022C74.2268 33.022 74.3514 33.0765 74.4527 33.1856C74.5618 33.2868 74.6163 33.4115 74.6163 33.5595V40.5352C74.6163 40.7455 74.5384 40.9247 74.3826 41.0727C74.2346 41.2207 74.0554 41.2947 73.8451 41.2947H73.7049C73.5803 41.2947 73.4634 41.2674 73.3544 41.2129C73.2453 41.1506 73.1557 41.0727 73.0856 40.9792L68.5637 34.4475V40.7689C68.5637 40.9169 68.5092 41.0415 68.4001 41.1428C68.2988 41.244 68.1742 41.2947 68.0262 41.2947Z" fill="white"/>
<path d="M77.6161 41.2362C77.4136 41.2362 77.2383 41.1661 77.0903 41.0259C76.9501 40.8779 76.88 40.7026 76.88 40.5001V33.5595C76.88 33.4115 76.9306 33.2868 77.0319 33.1856C77.1332 33.0765 77.2578 33.022 77.4058 33.022C77.5538 33.022 77.6784 33.0765 77.7797 33.1856C77.8888 33.2868 77.9433 33.4115 77.9433 33.5595V40.1729H81.7642C81.9122 40.1729 82.0368 40.2275 82.1381 40.3365C82.2471 40.4378 82.3016 40.5624 82.3016 40.7104C82.3016 40.8584 82.2471 40.9831 82.1381 41.0843C82.0368 41.1856 81.9122 41.2362 81.7642 41.2362H77.6161Z" fill="white"/>
<path d="M84.1381 41.2947C83.9901 41.2947 83.8655 41.244 83.7642 41.1428C83.6629 41.0415 83.6123 40.9169 83.6123 40.7689V33.5595C83.6123 33.4115 83.6629 33.2868 83.7642 33.1856C83.8655 33.0765 83.9901 33.022 84.1381 33.022C84.2861 33.022 84.4108 33.0765 84.512 33.1856C84.6211 33.2868 84.6756 33.4115 84.6756 33.5595V40.7689C84.6756 40.9169 84.6211 41.0415 84.512 41.1428C84.4108 41.244 84.2861 41.2947 84.1381 41.2947Z" fill="white"/>
<path d="M87.4701 41.2947C87.322 41.2947 87.1974 41.244 87.0961 41.1428C86.9949 41.0415 86.9442 40.9169 86.9442 40.7689V33.7932C86.9442 33.5828 87.0182 33.4037 87.1663 33.2557C87.3143 33.0999 87.4934 33.022 87.7037 33.022H87.8556C88.1049 33.022 88.3191 33.1388 88.4983 33.3725L92.9969 39.8691V33.5595C92.9969 33.4115 93.0475 33.2868 93.1488 33.1856C93.25 33.0765 93.3747 33.022 93.5227 33.022C93.6707 33.022 93.7953 33.0765 93.8966 33.1856C94.0056 33.2868 94.0602 33.4115 94.0602 33.5595V40.5352C94.0602 40.7455 93.9823 40.9247 93.8265 41.0727C93.6785 41.2207 93.4993 41.2947 93.289 41.2947H93.1488C93.0241 41.2947 92.9073 41.2674 92.7982 41.2129C92.6892 41.1506 92.5996 41.0727 92.5295 40.9792L88.0075 34.4475V40.7689C88.0075 40.9169 87.953 41.0415 87.844 41.1428C87.7427 41.244 87.6181 41.2947 87.4701 41.2947Z" fill="white"/>
<path d="M96.8497 41.2362C96.7017 41.2362 96.577 41.1856 96.4758 41.0843C96.3745 40.9831 96.3239 40.8584 96.3239 40.7104V33.6179C96.3239 33.4699 96.3745 33.3453 96.4758 33.244C96.577 33.1349 96.7017 33.0804 96.8497 33.0804H101.535C101.675 33.0804 101.792 33.131 101.886 33.2323C101.987 33.3258 102.038 33.4426 102.038 33.5828C102.038 33.7231 101.987 33.8399 101.886 33.9334C101.792 34.0269 101.675 34.0736 101.535 34.0736H97.3871V36.6559H101.115C101.255 36.6559 101.372 36.7065 101.465 36.8078C101.566 36.9013 101.617 37.0181 101.617 37.1583C101.617 37.2985 101.566 37.4154 101.465 37.5089C101.372 37.6023 101.255 37.6491 101.115 37.6491H97.3871V40.2431H101.535C101.675 40.2431 101.792 40.2937 101.886 40.395C101.987 40.4884 102.038 40.6053 102.038 40.7455C102.038 40.8857 101.987 41.0026 101.886 41.096C101.792 41.1895 101.675 41.2362 101.535 41.2362H96.8497Z" fill="white"/>
</svg>
