<svg width="20" height="21" viewBox="0 0 20 21" fill="none" xmlns="http://www.w3.org/2000/svg">
<path d="M17.1084 8.96165C17.1324 6.1419 14.7308 3.55693 11.7548 3.19948C11.6957 3.19246 11.6312 3.18178 11.5629 3.17047C11.4156 3.14606 11.2632 3.12097 11.1095 3.12097C10.4996 3.12097 10.3365 3.54942 10.2936 3.80495C10.2519 4.05339 10.2917 4.26203 10.4117 4.42532C10.6137 4.69998 10.9691 4.74874 11.2546 4.7878C11.3383 4.79936 11.4172 4.8101 11.4833 4.82495C14.1571 5.4224 15.0574 6.36172 15.4974 9.01277C15.5081 9.07756 15.513 9.15737 15.5181 9.24203C15.5373 9.55892 15.5773 10.2182 16.2861 10.2182H16.2862C16.3452 10.2182 16.4086 10.2131 16.4747 10.2031C17.1347 10.1028 17.114 9.5001 17.1041 9.21054C17.1013 9.12898 17.0986 9.05184 17.1055 9.00054C17.1074 8.98762 17.1083 8.97464 17.1084 8.96165Z" fill="#15499F"/>
<path d="M10.9364 2.16438C11.0156 2.17009 11.0906 2.17556 11.153 2.18512C15.5436 2.86034 17.5628 4.94059 18.1224 9.36555C18.1319 9.44077 18.1334 9.53251 18.1349 9.62965C18.1405 9.97537 18.152 10.6946 18.9244 10.7095L18.9484 10.7097C19.1906 10.7097 19.3833 10.6367 19.5211 10.4924C19.7615 10.241 19.7448 9.86736 19.7312 9.56711C19.7279 9.49344 19.7248 9.42406 19.7256 9.36332C19.7814 4.83773 15.864 0.733941 11.3425 0.581332C11.3237 0.580711 11.3058 0.581705 11.2877 0.584251C11.2789 0.585556 11.2624 0.587171 11.2342 0.587171C11.1891 0.587171 11.1336 0.583258 11.0748 0.579282C11.0037 0.574438 10.9231 0.568848 10.8413 0.568848C10.1213 0.568848 9.98438 1.08065 9.96687 1.38574C9.92649 2.09084 10.6086 2.14046 10.9364 2.16438Z" fill="#15499F"/>
<path d="M17.9105 15.0846C17.8172 15.0133 17.7207 14.9395 17.6303 14.8667C17.1509 14.4809 16.6409 14.1253 16.1477 13.7814C16.0453 13.7101 15.943 13.6387 15.841 13.5672C15.2092 13.1234 14.6412 12.9077 14.1045 12.9077C13.3817 12.9077 12.7515 13.3071 12.2314 14.0946C12.001 14.4438 11.7214 14.6135 11.3769 14.6135C11.1732 14.6135 10.9417 14.5554 10.6889 14.4406C8.64961 13.5159 7.1934 12.098 6.36067 10.2264C5.95812 9.32176 6.08862 8.73046 6.79706 8.24922C7.19936 7.97617 7.94818 7.46785 7.89514 6.49444C7.83508 5.38903 5.39607 2.06301 4.36843 1.68524C3.93334 1.52524 3.47619 1.52375 3.00725 1.68152C1.82588 2.07866 0.978119 2.77611 0.555386 3.69835C0.146877 4.58947 0.165324 5.6358 0.60874 6.72425C1.8906 9.87121 3.69284 12.6149 5.96557 14.8791C8.19017 17.0955 10.9244 18.911 14.0922 20.2751C14.3777 20.3979 14.6772 20.4649 14.8959 20.5138C14.9705 20.5306 15.0348 20.5449 15.0817 20.5577C15.1075 20.5647 15.1341 20.5685 15.1607 20.5688L15.1858 20.5689C15.1858 20.5689 15.1858 20.5689 15.1859 20.5689C16.6758 20.5689 18.4648 19.2074 19.0143 17.6552C19.4956 16.2961 18.6168 15.6243 17.9105 15.0846Z" fill="#15499F"/>
<path d="M11.5954 5.75921C11.3404 5.76567 10.8095 5.77884 10.6232 6.31952C10.5361 6.57219 10.5465 6.79157 10.6543 6.97157C10.8124 7.23567 11.1154 7.3166 11.391 7.36101C12.3904 7.52139 12.9037 8.07406 13.0064 9.10014C13.0541 9.57859 13.3763 9.91269 13.7899 9.91269H13.79C13.8205 9.91269 13.8518 9.91089 13.8829 9.9071C14.3804 9.84791 14.6216 9.48238 14.5998 8.82077C14.6077 8.13027 14.2464 7.34635 13.6318 6.72194C13.0151 6.09561 12.2717 5.74287 11.5954 5.75921Z" fill="#15499F"/>
</svg>
