<svg width="34" height="44" viewBox="0 0 34 44" fill="none" xmlns="http://www.w3.org/2000/svg">
<path d="M19.3404 18.6786C19.0283 18.4111 18.6717 18.2328 18.2705 18.0991C17.8693 18.0099 17.4235 17.9653 16.8885 17.9653H14.8379C14.4812 17.9653 14.2583 18.0545 14.08 18.1882C13.9463 18.322 13.8571 18.5894 13.8571 18.9461V24.6969C13.8571 24.9643 13.8571 25.1426 13.9463 25.321C13.9909 25.4993 14.08 25.5884 14.2138 25.6776C14.3475 25.7668 14.5704 25.8113 14.8824 25.8113H16.9331C17.2897 25.8113 17.6018 25.7668 17.9139 25.7222C18.1813 25.6776 18.4488 25.5884 18.7163 25.4993C18.9838 25.3655 19.2067 25.2318 19.385 25.0535C19.6525 24.786 19.8754 24.5185 20.0537 24.2065C20.232 23.8944 20.3657 23.5378 20.4549 23.1366C20.544 22.7353 20.5886 22.3341 20.5886 21.8438C20.5886 20.4618 20.1874 19.3919 19.3404 18.6786ZM18.1813 24.2065C18.0476 24.2956 17.9139 24.3848 17.7801 24.4294C17.6018 24.474 17.4681 24.5185 17.3343 24.5185C17.2006 24.5185 16.9777 24.5185 16.7102 24.5185H15.5066V19.169H16.5765C17.0668 19.169 17.4681 19.2136 17.8247 19.3473C18.1813 19.4365 18.4488 19.7039 18.6717 20.1052C18.8946 20.5064 19.0283 21.0859 19.0283 21.8438C18.9838 23.0028 18.7163 23.7607 18.1813 24.2065Z" fill="#15499F"/>
<path d="M33.5167 8.78217L33.4721 8.73759V8.69301L25.002 0.222898L24.9574 0.178318C24.9574 0.178318 24.9128 0.178318 24.9128 0.133739C24.9128 0.133739 24.8683 0.133739 24.8683 0.0891591C24.7345 0 24.6008 0 24.4225 0H3.42551C2.62308 0 1.86523 0.312057 1.33027 0.847011L1.28569 0.891591C0.75074 1.42655 0.394104 2.22898 0.394104 3.03141V40.9686C0.394104 41.8156 0.75074 42.5735 1.28569 43.1084C1.82065 43.6434 2.62308 44 3.42551 44H30.5745C31.4215 44 32.1793 43.6434 32.7143 43.1084C33.2492 42.5735 33.6059 41.771 33.6059 40.9686V9.22796C33.6059 9.04965 33.5613 8.91591 33.5167 8.78217ZM25.2695 3.20973L30.307 8.24721H26.6069C26.2502 8.24721 25.8936 8.11348 25.6707 7.846C25.4478 7.6231 25.2695 7.26646 25.2695 6.90983V3.20973ZM31.6889 40.9686C31.6889 41.2807 31.5552 41.5481 31.3323 41.771C31.1094 41.9939 30.8419 42.1277 30.5299 42.1277H3.42551C3.11346 42.1277 2.84598 41.9939 2.62308 41.8156C2.40018 41.5927 2.31102 41.3252 2.31102 41.0132V2.98683C2.31102 2.67477 2.44476 2.40729 2.66766 2.1844L2.71224 2.13982C2.93514 1.9615 3.20261 1.82776 3.47009 1.82776H23.4417V6.86525C23.4417 7.75684 23.7984 8.55927 24.4225 9.18338C25.002 9.76292 25.849 10.1196 26.7406 10.1196H31.6889V40.9686Z" fill="#15499F"/>
<path d="M11.8065 18.5898C11.5836 18.3669 11.3161 18.2332 10.9595 18.144C10.6474 18.0548 10.157 18.0103 9.57749 18.0103H7.52683C7.17019 18.0103 6.90272 18.0994 6.76898 18.2332C6.59066 18.3669 6.54608 18.6344 6.54608 18.991V25.0538C6.54608 25.3659 6.63524 25.5888 6.76898 25.7671C6.90272 25.9454 7.12562 25.99 7.34851 25.99C7.57141 25.99 7.74973 25.9008 7.92805 25.7225C8.06178 25.5442 8.15094 25.3213 8.15094 25.0092V22.7803H9.62207C10.6028 22.7803 11.3161 22.5574 11.8065 22.1561C12.2968 21.7549 12.5643 21.1308 12.5643 20.3284C12.5643 19.9718 12.5197 19.6151 12.386 19.3031C12.2077 19.0356 12.0294 18.7681 11.8065 18.5898ZM10.7366 21.0862C10.6028 21.2646 10.4245 21.3983 10.157 21.4875C9.88954 21.5766 9.57749 21.6212 9.22085 21.6212H8.15094V19.2139H9.22085C9.93412 19.2139 10.3799 19.3476 10.6474 19.5705C10.8703 19.7934 10.9595 20.0609 10.9595 20.4175C10.9149 20.685 10.8703 20.9079 10.7366 21.0862Z" fill="#15499F"/>
<path d="M22.9514 17.9209C22.6839 17.9655 22.5056 18.0101 22.3719 18.0992C22.2381 18.1438 22.1044 18.2775 22.0598 18.4113C21.9706 18.545 21.9706 18.7233 21.9706 18.9908V25.009C21.9706 25.3211 22.0598 25.5886 22.1935 25.7223C22.3273 25.9006 22.5502 25.9452 22.7731 25.9452C22.996 25.9452 23.1743 25.8561 23.3526 25.7223C23.4863 25.544 23.5755 25.3211 23.5755 25.009V22.4234H26.2057C26.4286 22.4234 26.6069 22.3789 26.7407 22.2451C26.8744 22.156 26.919 21.9776 26.919 21.7993C26.919 21.621 26.8744 21.4873 26.7407 21.3535C26.6069 21.2644 26.4286 21.1752 26.2057 21.1752H23.5755V19.1691H26.6961C26.9635 19.1691 27.1419 19.1245 27.2756 18.9908C27.4093 18.8571 27.4539 18.7233 27.4539 18.545C27.4539 18.3667 27.4093 18.233 27.2756 18.0992C27.1419 17.9655 26.9635 17.9209 26.6961 17.9209H22.9514Z" fill="#15499F"/>
</svg>
