<svg width="21" height="16" viewBox="0 0 21 16" fill="none" xmlns="http://www.w3.org/2000/svg">
<path fill-rule="evenodd" clip-rule="evenodd" d="M16.1991 2.72367L16.2064 2.72428L16.2137 2.72484C16.8268 2.772 17.0736 2.88362 17.1537 2.93136L17.1572 2.93345C17.1897 2.95259 17.2475 2.98661 17.3329 3.18017C17.4458 3.43585 17.5667 3.89036 17.6461 4.69393C17.7242 5.48513 17.7507 6.47894 17.7507 7.75376C17.7507 9.02825 17.7242 10.0281 17.6459 10.8269C17.5663 11.6388 17.4447 12.103 17.3299 12.3655C17.2441 12.5614 17.1882 12.5919 17.1686 12.6025L17.1653 12.6044C17.1025 12.6413 16.8729 12.7481 16.2723 12.7789L16.2723 12.7789L16.2625 12.7794C13.3603 12.9407 6.81825 12.9412 3.89441 12.7809C3.29801 12.7327 3.05639 12.6233 2.97726 12.5762L2.97372 12.5741C2.94125 12.5549 2.8835 12.5209 2.79806 12.3273C2.68519 12.0717 2.56423 11.6171 2.48491 10.8136C2.40681 10.0224 2.38031 9.02857 2.38031 7.75376C2.38031 6.47894 2.40681 5.48513 2.48491 4.69393C2.56423 3.89036 2.68519 3.43585 2.79806 3.18017C2.88351 2.98661 2.94125 2.95259 2.97372 2.93345L2.97726 2.93136C3.05739 2.88362 3.30416 2.772 3.91727 2.72484L3.92458 2.72428L3.93188 2.72367C6.80061 2.48461 13.3304 2.48461 16.1991 2.72367ZM0.0791016 7.75376C0.0791016 12.9134 0.495201 14.8274 3.74078 15.0771C6.73669 15.2435 13.3943 15.2435 16.3902 15.0771C19.6358 14.9107 20.0519 12.9134 20.0519 7.75376C20.0519 2.59412 19.6358 0.680068 16.3902 0.430409C13.3943 0.180749 6.73669 0.180749 3.74078 0.430409C0.495201 0.680068 0.0791016 2.59412 0.0791016 7.75376ZM9.23403 10.2499C8.46899 10.6324 7.56886 10.0761 7.56886 9.2208V6.28664C7.56886 5.4313 8.469 4.87499 9.23403 5.25751L12.1682 6.72459C13.0162 7.14861 13.0162 8.35883 12.1682 8.78285L9.23403 10.2499Z" fill="#15499F"/>
</svg>
